<mxfile host="app.diagrams.net" modified="2021-01-09T12:23:05.804Z" agent="5.0 (Macintosh; Intel Mac OS X 11_1_0) AppleWebKit/537.36 (KHTML, like Gecko) Chrome/87.0.4280.88 Safari/537.36" etag="1HSY5SRYUEruYzEJVpJn" version="14.1.8" type="github">
  <diagram id="ZL88Ck0jPQ6fW8jYsuRH" name="Page-1">
    <mxGraphModel dx="1135" dy="738" grid="1" gridSize="10" guides="1" tooltips="1" connect="1" arrows="1" fold="1" page="1" pageScale="1" pageWidth="827" pageHeight="1169" math="0" shadow="0">
      <root>
        <mxCell id="0" />
        <mxCell id="1" parent="0" />
        <mxCell id="BTjaL7hRL5fljO6jldBH-1" value="自动驾驶技术" style="rounded=0;whiteSpace=wrap;html=1;" parent="1" vertex="1">
          <mxGeometry x="180" y="410" width="120" height="60" as="geometry" />
        </mxCell>
        <mxCell id="-4MOpglVaHPoF0utyKIM-1" value="算法" style="rounded=0;whiteSpace=wrap;html=1;" vertex="1" parent="1">
          <mxGeometry x="360" y="140" width="100" height="30" as="geometry" />
        </mxCell>
        <mxCell id="-4MOpglVaHPoF0utyKIM-2" value="" style="endArrow=classic;html=1;exitX=1;exitY=0.5;exitDx=0;exitDy=0;entryX=0;entryY=0.5;entryDx=0;entryDy=0;edgeStyle=orthogonalEdgeStyle;" edge="1" parent="1" source="BTjaL7hRL5fljO6jldBH-1" target="-4MOpglVaHPoF0utyKIM-1">
          <mxGeometry width="50" height="50" relative="1" as="geometry">
            <mxPoint x="360" y="280" as="sourcePoint" />
            <mxPoint x="410" y="230" as="targetPoint" />
          </mxGeometry>
        </mxCell>
        <mxCell id="-4MOpglVaHPoF0utyKIM-3" value="传感sensing" style="rounded=0;whiteSpace=wrap;html=1;" vertex="1" parent="1">
          <mxGeometry x="500" y="80" width="100" height="30" as="geometry" />
        </mxCell>
        <mxCell id="-4MOpglVaHPoF0utyKIM-4" value="感知perception" style="rounded=0;whiteSpace=wrap;html=1;" vertex="1" parent="1">
          <mxGeometry x="500" y="160" width="100" height="30" as="geometry" />
        </mxCell>
        <mxCell id="-4MOpglVaHPoF0utyKIM-5" value="决策decision" style="rounded=0;whiteSpace=wrap;html=1;" vertex="1" parent="1">
          <mxGeometry x="500" y="250" width="100" height="30" as="geometry" />
        </mxCell>
        <mxCell id="-4MOpglVaHPoF0utyKIM-6" value="" style="endArrow=classic;html=1;exitX=1;exitY=0.5;exitDx=0;exitDy=0;entryX=0;entryY=0.5;entryDx=0;entryDy=0;edgeStyle=orthogonalEdgeStyle;" edge="1" parent="1" source="-4MOpglVaHPoF0utyKIM-1" target="-4MOpglVaHPoF0utyKIM-3">
          <mxGeometry width="50" height="50" relative="1" as="geometry">
            <mxPoint x="450" y="280" as="sourcePoint" />
            <mxPoint x="500" y="230" as="targetPoint" />
          </mxGeometry>
        </mxCell>
        <mxCell id="-4MOpglVaHPoF0utyKIM-7" value="" style="endArrow=classic;html=1;exitX=1;exitY=0.5;exitDx=0;exitDy=0;entryX=0;entryY=0.5;entryDx=0;entryDy=0;edgeStyle=orthogonalEdgeStyle;" edge="1" parent="1" source="-4MOpglVaHPoF0utyKIM-1" target="-4MOpglVaHPoF0utyKIM-4">
          <mxGeometry width="50" height="50" relative="1" as="geometry">
            <mxPoint x="480" y="300" as="sourcePoint" />
            <mxPoint x="530" y="250" as="targetPoint" />
          </mxGeometry>
        </mxCell>
        <mxCell id="-4MOpglVaHPoF0utyKIM-8" value="" style="endArrow=classic;html=1;exitX=1;exitY=0.5;exitDx=0;exitDy=0;entryX=0;entryY=0.5;entryDx=0;entryDy=0;edgeStyle=orthogonalEdgeStyle;" edge="1" parent="1" source="-4MOpglVaHPoF0utyKIM-1" target="-4MOpglVaHPoF0utyKIM-5">
          <mxGeometry width="50" height="50" relative="1" as="geometry">
            <mxPoint x="490" y="280" as="sourcePoint" />
            <mxPoint x="540" y="230" as="targetPoint" />
          </mxGeometry>
        </mxCell>
        <mxCell id="-4MOpglVaHPoF0utyKIM-9" value="GPS/IMU" style="rounded=0;whiteSpace=wrap;html=1;" vertex="1" parent="1">
          <mxGeometry x="630" y="50" width="120" height="20" as="geometry" />
        </mxCell>
        <mxCell id="-4MOpglVaHPoF0utyKIM-10" value="LIDAR" style="rounded=0;whiteSpace=wrap;html=1;" vertex="1" parent="1">
          <mxGeometry x="630" y="80" width="120" height="20" as="geometry" />
        </mxCell>
        <mxCell id="-4MOpglVaHPoF0utyKIM-11" value="Camera" style="rounded=0;whiteSpace=wrap;html=1;" vertex="1" parent="1">
          <mxGeometry x="630" y="110" width="120" height="20" as="geometry" />
        </mxCell>
        <mxCell id="-4MOpglVaHPoF0utyKIM-12" value="" style="endArrow=classic;html=1;exitX=1;exitY=0.5;exitDx=0;exitDy=0;entryX=0;entryY=0.5;entryDx=0;entryDy=0;edgeStyle=orthogonalEdgeStyle;" edge="1" parent="1" source="-4MOpglVaHPoF0utyKIM-3" target="-4MOpglVaHPoF0utyKIM-9">
          <mxGeometry width="50" height="50" relative="1" as="geometry">
            <mxPoint x="680" y="230" as="sourcePoint" />
            <mxPoint x="730" y="180" as="targetPoint" />
          </mxGeometry>
        </mxCell>
        <mxCell id="-4MOpglVaHPoF0utyKIM-13" value="" style="endArrow=classic;html=1;exitX=1;exitY=0.5;exitDx=0;exitDy=0;entryX=0;entryY=0.5;entryDx=0;entryDy=0;edgeStyle=orthogonalEdgeStyle;" edge="1" parent="1" source="-4MOpglVaHPoF0utyKIM-3" target="-4MOpglVaHPoF0utyKIM-10">
          <mxGeometry width="50" height="50" relative="1" as="geometry">
            <mxPoint x="680" y="250" as="sourcePoint" />
            <mxPoint x="730" y="200" as="targetPoint" />
          </mxGeometry>
        </mxCell>
        <mxCell id="-4MOpglVaHPoF0utyKIM-14" value="" style="endArrow=classic;html=1;exitX=1;exitY=0.5;exitDx=0;exitDy=0;entryX=0;entryY=0.5;entryDx=0;entryDy=0;edgeStyle=orthogonalEdgeStyle;" edge="1" parent="1" source="-4MOpglVaHPoF0utyKIM-3" target="-4MOpglVaHPoF0utyKIM-11">
          <mxGeometry width="50" height="50" relative="1" as="geometry">
            <mxPoint x="680" y="230" as="sourcePoint" />
            <mxPoint x="730" y="180" as="targetPoint" />
          </mxGeometry>
        </mxCell>
        <mxCell id="-4MOpglVaHPoF0utyKIM-15" value="Licalization" style="rounded=0;whiteSpace=wrap;html=1;" vertex="1" parent="1">
          <mxGeometry x="630" y="140" width="120" height="20" as="geometry" />
        </mxCell>
        <mxCell id="-4MOpglVaHPoF0utyKIM-16" value="Object Recognition" style="rounded=0;whiteSpace=wrap;html=1;" vertex="1" parent="1">
          <mxGeometry x="630" y="170" width="120" height="20" as="geometry" />
        </mxCell>
        <mxCell id="-4MOpglVaHPoF0utyKIM-17" value="Object Tracking" style="rounded=0;whiteSpace=wrap;html=1;" vertex="1" parent="1">
          <mxGeometry x="630" y="200" width="120" height="20" as="geometry" />
        </mxCell>
        <mxCell id="-4MOpglVaHPoF0utyKIM-18" value="" style="endArrow=classic;html=1;exitX=1;exitY=0.5;exitDx=0;exitDy=0;entryX=0;entryY=0.5;entryDx=0;entryDy=0;edgeStyle=orthogonalEdgeStyle;" edge="1" parent="1" source="-4MOpglVaHPoF0utyKIM-4" target="-4MOpglVaHPoF0utyKIM-15">
          <mxGeometry width="50" height="50" relative="1" as="geometry">
            <mxPoint x="700" y="310" as="sourcePoint" />
            <mxPoint x="750" y="260" as="targetPoint" />
          </mxGeometry>
        </mxCell>
        <mxCell id="-4MOpglVaHPoF0utyKIM-19" value="" style="endArrow=classic;html=1;exitX=1;exitY=0.5;exitDx=0;exitDy=0;entryX=0;entryY=0.5;entryDx=0;entryDy=0;edgeStyle=orthogonalEdgeStyle;" edge="1" parent="1" source="-4MOpglVaHPoF0utyKIM-4" target="-4MOpglVaHPoF0utyKIM-16">
          <mxGeometry width="50" height="50" relative="1" as="geometry">
            <mxPoint x="680" y="330" as="sourcePoint" />
            <mxPoint x="730" y="280" as="targetPoint" />
          </mxGeometry>
        </mxCell>
        <mxCell id="-4MOpglVaHPoF0utyKIM-20" value="" style="endArrow=classic;html=1;exitX=1;exitY=0.5;exitDx=0;exitDy=0;entryX=0;entryY=0.5;entryDx=0;entryDy=0;edgeStyle=orthogonalEdgeStyle;" edge="1" parent="1" source="-4MOpglVaHPoF0utyKIM-4" target="-4MOpglVaHPoF0utyKIM-17">
          <mxGeometry width="50" height="50" relative="1" as="geometry">
            <mxPoint x="650" y="320" as="sourcePoint" />
            <mxPoint x="700" y="270" as="targetPoint" />
          </mxGeometry>
        </mxCell>
        <mxCell id="-4MOpglVaHPoF0utyKIM-21" value="Path Planning" style="rounded=0;whiteSpace=wrap;html=1;" vertex="1" parent="1">
          <mxGeometry x="630" y="230" width="120" height="20" as="geometry" />
        </mxCell>
        <mxCell id="-4MOpglVaHPoF0utyKIM-22" value="Action Prediction" style="rounded=0;whiteSpace=wrap;html=1;" vertex="1" parent="1">
          <mxGeometry x="630" y="260" width="120" height="20" as="geometry" />
        </mxCell>
        <mxCell id="-4MOpglVaHPoF0utyKIM-23" value="Obstacle Avodiance" style="rounded=0;whiteSpace=wrap;html=1;" vertex="1" parent="1">
          <mxGeometry x="630" y="290" width="120" height="20" as="geometry" />
        </mxCell>
        <mxCell id="-4MOpglVaHPoF0utyKIM-24" value="" style="endArrow=classic;html=1;exitX=1;exitY=0.5;exitDx=0;exitDy=0;entryX=0;entryY=0.5;entryDx=0;entryDy=0;edgeStyle=orthogonalEdgeStyle;" edge="1" parent="1" source="-4MOpglVaHPoF0utyKIM-5" target="-4MOpglVaHPoF0utyKIM-21">
          <mxGeometry width="50" height="50" relative="1" as="geometry">
            <mxPoint x="560" y="410" as="sourcePoint" />
            <mxPoint x="610" y="360" as="targetPoint" />
          </mxGeometry>
        </mxCell>
        <mxCell id="-4MOpglVaHPoF0utyKIM-25" value="" style="endArrow=classic;html=1;exitX=1;exitY=0.5;exitDx=0;exitDy=0;entryX=0;entryY=0.5;entryDx=0;entryDy=0;edgeStyle=orthogonalEdgeStyle;" edge="1" parent="1" source="-4MOpglVaHPoF0utyKIM-5" target="-4MOpglVaHPoF0utyKIM-22">
          <mxGeometry width="50" height="50" relative="1" as="geometry">
            <mxPoint x="630" y="410" as="sourcePoint" />
            <mxPoint x="680" y="360" as="targetPoint" />
          </mxGeometry>
        </mxCell>
        <mxCell id="-4MOpglVaHPoF0utyKIM-26" value="" style="endArrow=classic;html=1;exitX=1;exitY=0.5;exitDx=0;exitDy=0;entryX=0;entryY=0.5;entryDx=0;entryDy=0;edgeStyle=orthogonalEdgeStyle;" edge="1" parent="1" source="-4MOpglVaHPoF0utyKIM-5" target="-4MOpglVaHPoF0utyKIM-23">
          <mxGeometry width="50" height="50" relative="1" as="geometry">
            <mxPoint x="600" y="260" as="sourcePoint" />
            <mxPoint x="680" y="370" as="targetPoint" />
          </mxGeometry>
        </mxCell>
        <mxCell id="-4MOpglVaHPoF0utyKIM-27" value="ROS 操作系统" style="rounded=0;whiteSpace=wrap;html=1;" vertex="1" parent="1">
          <mxGeometry x="360" y="360" width="100" height="30" as="geometry" />
        </mxCell>
        <mxCell id="-4MOpglVaHPoF0utyKIM-28" value="" style="endArrow=classic;html=1;exitX=1;exitY=0.5;exitDx=0;exitDy=0;entryX=0;entryY=0.5;entryDx=0;entryDy=0;edgeStyle=orthogonalEdgeStyle;" edge="1" parent="1" source="BTjaL7hRL5fljO6jldBH-1" target="-4MOpglVaHPoF0utyKIM-27">
          <mxGeometry width="50" height="50" relative="1" as="geometry">
            <mxPoint x="300" y="470" as="sourcePoint" />
            <mxPoint x="350" y="420" as="targetPoint" />
          </mxGeometry>
        </mxCell>
        <mxCell id="-4MOpglVaHPoF0utyKIM-29" value="Trajectory Planning" style="rounded=0;whiteSpace=wrap;html=1;" vertex="1" parent="1">
          <mxGeometry x="496" y="330" width="120" height="20" as="geometry" />
        </mxCell>
        <mxCell id="-4MOpglVaHPoF0utyKIM-31" value="Control Management" style="rounded=0;whiteSpace=wrap;html=1;" vertex="1" parent="1">
          <mxGeometry x="496" y="360" width="120" height="20" as="geometry" />
        </mxCell>
        <mxCell id="-4MOpglVaHPoF0utyKIM-32" value="Localization" style="rounded=0;whiteSpace=wrap;html=1;" vertex="1" parent="1">
          <mxGeometry x="496" y="390" width="120" height="20" as="geometry" />
        </mxCell>
        <mxCell id="-4MOpglVaHPoF0utyKIM-33" value="Camera Management" style="rounded=0;whiteSpace=wrap;html=1;" vertex="1" parent="1">
          <mxGeometry x="496" y="420" width="120" height="20" as="geometry" />
        </mxCell>
        <mxCell id="-4MOpglVaHPoF0utyKIM-34" value="" style="endArrow=classic;html=1;exitX=1;exitY=0.5;exitDx=0;exitDy=0;entryX=0;entryY=0.5;entryDx=0;entryDy=0;edgeStyle=orthogonalEdgeStyle;" edge="1" parent="1" source="-4MOpglVaHPoF0utyKIM-27" target="-4MOpglVaHPoF0utyKIM-29">
          <mxGeometry width="50" height="50" relative="1" as="geometry">
            <mxPoint x="736" y="360" as="sourcePoint" />
            <mxPoint x="786" y="310" as="targetPoint" />
          </mxGeometry>
        </mxCell>
        <mxCell id="-4MOpglVaHPoF0utyKIM-35" value="" style="endArrow=classic;html=1;exitX=1;exitY=0.5;exitDx=0;exitDy=0;entryX=0;entryY=0.5;entryDx=0;entryDy=0;edgeStyle=orthogonalEdgeStyle;" edge="1" parent="1" source="-4MOpglVaHPoF0utyKIM-27" target="-4MOpglVaHPoF0utyKIM-31">
          <mxGeometry width="50" height="50" relative="1" as="geometry">
            <mxPoint x="696" y="400" as="sourcePoint" />
            <mxPoint x="486" y="400" as="targetPoint" />
          </mxGeometry>
        </mxCell>
        <mxCell id="-4MOpglVaHPoF0utyKIM-36" value="" style="endArrow=classic;html=1;exitX=1;exitY=0.5;exitDx=0;exitDy=0;entryX=0;entryY=0.5;entryDx=0;entryDy=0;edgeStyle=orthogonalEdgeStyle;" edge="1" parent="1" source="-4MOpglVaHPoF0utyKIM-27" target="-4MOpglVaHPoF0utyKIM-32">
          <mxGeometry width="50" height="50" relative="1" as="geometry">
            <mxPoint x="476" y="530" as="sourcePoint" />
            <mxPoint x="526" y="480" as="targetPoint" />
          </mxGeometry>
        </mxCell>
        <mxCell id="-4MOpglVaHPoF0utyKIM-37" value="" style="endArrow=classic;html=1;exitX=1;exitY=0.5;exitDx=0;exitDy=0;entryX=0;entryY=0.5;entryDx=0;entryDy=0;edgeStyle=orthogonalEdgeStyle;" edge="1" parent="1" source="-4MOpglVaHPoF0utyKIM-27" target="-4MOpglVaHPoF0utyKIM-33">
          <mxGeometry width="50" height="50" relative="1" as="geometry">
            <mxPoint x="506" y="540" as="sourcePoint" />
            <mxPoint x="556" y="490" as="targetPoint" />
          </mxGeometry>
        </mxCell>
        <mxCell id="-4MOpglVaHPoF0utyKIM-38" value="硬件平台" style="rounded=0;whiteSpace=wrap;html=1;" vertex="1" parent="1">
          <mxGeometry x="360" y="520" width="100" height="30" as="geometry" />
        </mxCell>
        <mxCell id="-4MOpglVaHPoF0utyKIM-39" value="" style="endArrow=classic;html=1;exitX=1;exitY=0.5;exitDx=0;exitDy=0;entryX=0;entryY=0.5;entryDx=0;entryDy=0;edgeStyle=orthogonalEdgeStyle;" edge="1" parent="1" source="BTjaL7hRL5fljO6jldBH-1" target="-4MOpglVaHPoF0utyKIM-38">
          <mxGeometry width="50" height="50" relative="1" as="geometry">
            <mxPoint x="270" y="500" as="sourcePoint" />
            <mxPoint x="320" y="450" as="targetPoint" />
          </mxGeometry>
        </mxCell>
        <mxCell id="-4MOpglVaHPoF0utyKIM-40" value="sensors" style="rounded=0;whiteSpace=wrap;html=1;" vertex="1" parent="1">
          <mxGeometry x="496" y="460" width="100" height="30" as="geometry" />
        </mxCell>
        <mxCell id="-4MOpglVaHPoF0utyKIM-41" value="PCI/Ethernet" style="rounded=0;whiteSpace=wrap;html=1;" vertex="1" parent="1">
          <mxGeometry x="496" y="500" width="100" height="30" as="geometry" />
        </mxCell>
        <mxCell id="-4MOpglVaHPoF0utyKIM-42" value="Computing Platform" style="rounded=0;whiteSpace=wrap;html=1;" vertex="1" parent="1">
          <mxGeometry x="496" y="540" width="100" height="30" as="geometry" />
        </mxCell>
        <mxCell id="-4MOpglVaHPoF0utyKIM-43" value="芯片" style="rounded=0;whiteSpace=wrap;html=1;" vertex="1" parent="1">
          <mxGeometry x="496" y="580" width="100" height="30" as="geometry" />
        </mxCell>
        <mxCell id="-4MOpglVaHPoF0utyKIM-44" value="" style="endArrow=classic;html=1;exitX=1;exitY=0.5;exitDx=0;exitDy=0;entryX=0;entryY=0.5;entryDx=0;entryDy=0;edgeStyle=orthogonalEdgeStyle;" edge="1" parent="1" source="-4MOpglVaHPoF0utyKIM-38" target="-4MOpglVaHPoF0utyKIM-40">
          <mxGeometry width="50" height="50" relative="1" as="geometry">
            <mxPoint x="670" y="480" as="sourcePoint" />
            <mxPoint x="720" y="430" as="targetPoint" />
          </mxGeometry>
        </mxCell>
        <mxCell id="-4MOpglVaHPoF0utyKIM-45" value="" style="endArrow=classic;html=1;exitX=1;exitY=0.5;exitDx=0;exitDy=0;entryX=0;entryY=0.5;entryDx=0;entryDy=0;edgeStyle=orthogonalEdgeStyle;" edge="1" parent="1" source="-4MOpglVaHPoF0utyKIM-38" target="-4MOpglVaHPoF0utyKIM-41">
          <mxGeometry width="50" height="50" relative="1" as="geometry">
            <mxPoint x="690" y="510" as="sourcePoint" />
            <mxPoint x="740" y="460" as="targetPoint" />
          </mxGeometry>
        </mxCell>
        <mxCell id="-4MOpglVaHPoF0utyKIM-46" value="" style="endArrow=classic;html=1;exitX=1;exitY=0.5;exitDx=0;exitDy=0;entryX=0;entryY=0.5;entryDx=0;entryDy=0;edgeStyle=orthogonalEdgeStyle;" edge="1" parent="1" source="-4MOpglVaHPoF0utyKIM-38" target="-4MOpglVaHPoF0utyKIM-42">
          <mxGeometry width="50" height="50" relative="1" as="geometry">
            <mxPoint x="650" y="570" as="sourcePoint" />
            <mxPoint x="700" y="520" as="targetPoint" />
          </mxGeometry>
        </mxCell>
        <mxCell id="-4MOpglVaHPoF0utyKIM-47" value="" style="endArrow=classic;html=1;exitX=1;exitY=0.5;exitDx=0;exitDy=0;entryX=0;entryY=0.5;entryDx=0;entryDy=0;edgeStyle=orthogonalEdgeStyle;" edge="1" parent="1" source="-4MOpglVaHPoF0utyKIM-38" target="-4MOpglVaHPoF0utyKIM-43">
          <mxGeometry width="50" height="50" relative="1" as="geometry">
            <mxPoint x="640" y="570" as="sourcePoint" />
            <mxPoint x="690" y="520" as="targetPoint" />
          </mxGeometry>
        </mxCell>
        <mxCell id="-4MOpglVaHPoF0utyKIM-48" value="云平台" style="rounded=0;whiteSpace=wrap;html=1;" vertex="1" parent="1">
          <mxGeometry x="360" y="650" width="100" height="30" as="geometry" />
        </mxCell>
        <mxCell id="-4MOpglVaHPoF0utyKIM-49" value="" style="endArrow=classic;html=1;exitX=1;exitY=0.5;exitDx=0;exitDy=0;entryX=0;entryY=0.5;entryDx=0;entryDy=0;edgeStyle=orthogonalEdgeStyle;" edge="1" parent="1" source="BTjaL7hRL5fljO6jldBH-1" target="-4MOpglVaHPoF0utyKIM-48">
          <mxGeometry width="50" height="50" relative="1" as="geometry">
            <mxPoint x="290" y="640" as="sourcePoint" />
            <mxPoint x="340" y="590" as="targetPoint" />
          </mxGeometry>
        </mxCell>
        <mxCell id="-4MOpglVaHPoF0utyKIM-50" value="Computing" style="rounded=0;whiteSpace=wrap;html=1;" vertex="1" parent="1">
          <mxGeometry x="496" y="620" width="100" height="30" as="geometry" />
        </mxCell>
        <mxCell id="-4MOpglVaHPoF0utyKIM-51" value="Simulation" style="rounded=0;whiteSpace=wrap;html=1;" vertex="1" parent="1">
          <mxGeometry x="496" y="660" width="100" height="30" as="geometry" />
        </mxCell>
        <mxCell id="-4MOpglVaHPoF0utyKIM-52" value="HD Map" style="rounded=0;whiteSpace=wrap;html=1;" vertex="1" parent="1">
          <mxGeometry x="496" y="700" width="100" height="30" as="geometry" />
        </mxCell>
        <mxCell id="-4MOpglVaHPoF0utyKIM-53" value="" style="endArrow=classic;html=1;exitX=1;exitY=0.5;exitDx=0;exitDy=0;entryX=0;entryY=0.5;entryDx=0;entryDy=0;edgeStyle=orthogonalEdgeStyle;" edge="1" parent="1" source="-4MOpglVaHPoF0utyKIM-48" target="-4MOpglVaHPoF0utyKIM-50">
          <mxGeometry width="50" height="50" relative="1" as="geometry">
            <mxPoint x="650" y="620" as="sourcePoint" />
            <mxPoint x="700" y="570" as="targetPoint" />
          </mxGeometry>
        </mxCell>
        <mxCell id="-4MOpglVaHPoF0utyKIM-54" value="" style="endArrow=classic;html=1;exitX=1;exitY=0.5;exitDx=0;exitDy=0;entryX=0;entryY=0.5;entryDx=0;entryDy=0;edgeStyle=orthogonalEdgeStyle;" edge="1" parent="1" source="-4MOpglVaHPoF0utyKIM-48" target="-4MOpglVaHPoF0utyKIM-51">
          <mxGeometry width="50" height="50" relative="1" as="geometry">
            <mxPoint x="660" y="640" as="sourcePoint" />
            <mxPoint x="710" y="590" as="targetPoint" />
          </mxGeometry>
        </mxCell>
        <mxCell id="-4MOpglVaHPoF0utyKIM-55" value="" style="endArrow=classic;html=1;exitX=1;exitY=0.5;exitDx=0;exitDy=0;entryX=0;entryY=0.5;entryDx=0;entryDy=0;edgeStyle=orthogonalEdgeStyle;" edge="1" parent="1" source="-4MOpglVaHPoF0utyKIM-48" target="-4MOpglVaHPoF0utyKIM-52">
          <mxGeometry width="50" height="50" relative="1" as="geometry">
            <mxPoint x="640" y="690" as="sourcePoint" />
            <mxPoint x="690" y="640" as="targetPoint" />
          </mxGeometry>
        </mxCell>
        <mxCell id="-4MOpglVaHPoF0utyKIM-56" value="感知" style="rounded=0;whiteSpace=wrap;html=1;" vertex="1" parent="1">
          <mxGeometry x="360" y="850" width="100" height="30" as="geometry" />
        </mxCell>
        <mxCell id="-4MOpglVaHPoF0utyKIM-57" value="" style="endArrow=classic;html=1;exitX=1;exitY=0.5;exitDx=0;exitDy=0;entryX=0;entryY=0.5;entryDx=0;entryDy=0;edgeStyle=orthogonalEdgeStyle;" edge="1" parent="1" source="BTjaL7hRL5fljO6jldBH-1" target="-4MOpglVaHPoF0utyKIM-56">
          <mxGeometry width="50" height="50" relative="1" as="geometry">
            <mxPoint x="250" y="790" as="sourcePoint" />
            <mxPoint x="300" y="740" as="targetPoint" />
          </mxGeometry>
        </mxCell>
        <mxCell id="-4MOpglVaHPoF0utyKIM-58" value="机器视觉" style="rounded=0;whiteSpace=wrap;html=1;" vertex="1" parent="1">
          <mxGeometry x="630" y="700" width="120" height="20" as="geometry" />
        </mxCell>
        <mxCell id="-4MOpglVaHPoF0utyKIM-59" value="硬件感知" style="rounded=0;whiteSpace=wrap;html=1;" vertex="1" parent="1">
          <mxGeometry x="496" y="800" width="100" height="30" as="geometry" />
        </mxCell>
        <mxCell id="-4MOpglVaHPoF0utyKIM-60" value="" style="endArrow=classic;html=1;exitX=1;exitY=0.5;exitDx=0;exitDy=0;entryX=0;entryY=0.5;entryDx=0;entryDy=0;edgeStyle=orthogonalEdgeStyle;" edge="1" parent="1" source="-4MOpglVaHPoF0utyKIM-56" target="-4MOpglVaHPoF0utyKIM-59">
          <mxGeometry width="50" height="50" relative="1" as="geometry">
            <mxPoint x="470" y="930" as="sourcePoint" />
            <mxPoint x="520" y="880" as="targetPoint" />
          </mxGeometry>
        </mxCell>
        <mxCell id="-4MOpglVaHPoF0utyKIM-61" value="激光雷达" style="rounded=0;whiteSpace=wrap;html=1;" vertex="1" parent="1">
          <mxGeometry x="630" y="730" width="120" height="20" as="geometry" />
        </mxCell>
        <mxCell id="-4MOpglVaHPoF0utyKIM-62" value="毫米波雷达" style="rounded=0;whiteSpace=wrap;html=1;" vertex="1" parent="1">
          <mxGeometry x="630" y="760" width="120" height="20" as="geometry" />
        </mxCell>
        <mxCell id="-4MOpglVaHPoF0utyKIM-63" value="微波雷达" style="rounded=0;whiteSpace=wrap;html=1;" vertex="1" parent="1">
          <mxGeometry x="630" y="790" width="120" height="20" as="geometry" />
        </mxCell>
        <mxCell id="-4MOpglVaHPoF0utyKIM-64" value="超声波传感" style="rounded=0;whiteSpace=wrap;html=1;" vertex="1" parent="1">
          <mxGeometry x="630" y="820" width="120" height="20" as="geometry" />
        </mxCell>
        <mxCell id="-4MOpglVaHPoF0utyKIM-65" value="红外线传感" style="rounded=0;whiteSpace=wrap;html=1;" vertex="1" parent="1">
          <mxGeometry x="630" y="850" width="120" height="20" as="geometry" />
        </mxCell>
        <mxCell id="-4MOpglVaHPoF0utyKIM-66" value="" style="endArrow=classic;html=1;exitX=1;exitY=0.5;exitDx=0;exitDy=0;entryX=0;entryY=0.5;entryDx=0;entryDy=0;edgeStyle=orthogonalEdgeStyle;" edge="1" parent="1" source="-4MOpglVaHPoF0utyKIM-59" target="-4MOpglVaHPoF0utyKIM-58">
          <mxGeometry width="50" height="50" relative="1" as="geometry">
            <mxPoint x="540" y="950" as="sourcePoint" />
            <mxPoint x="590" y="900" as="targetPoint" />
          </mxGeometry>
        </mxCell>
        <mxCell id="-4MOpglVaHPoF0utyKIM-67" value="" style="endArrow=classic;html=1;exitX=1;exitY=0.5;exitDx=0;exitDy=0;entryX=0;entryY=0.5;entryDx=0;entryDy=0;edgeStyle=orthogonalEdgeStyle;" edge="1" parent="1" source="-4MOpglVaHPoF0utyKIM-59" target="-4MOpglVaHPoF0utyKIM-61">
          <mxGeometry width="50" height="50" relative="1" as="geometry">
            <mxPoint x="540" y="930" as="sourcePoint" />
            <mxPoint x="590" y="880" as="targetPoint" />
          </mxGeometry>
        </mxCell>
        <mxCell id="-4MOpglVaHPoF0utyKIM-68" value="" style="endArrow=classic;html=1;exitX=1;exitY=0.5;exitDx=0;exitDy=0;entryX=0;entryY=0.5;entryDx=0;entryDy=0;edgeStyle=orthogonalEdgeStyle;" edge="1" parent="1" source="-4MOpglVaHPoF0utyKIM-59" target="-4MOpglVaHPoF0utyKIM-62">
          <mxGeometry width="50" height="50" relative="1" as="geometry">
            <mxPoint x="560" y="940" as="sourcePoint" />
            <mxPoint x="610" y="890" as="targetPoint" />
          </mxGeometry>
        </mxCell>
        <mxCell id="-4MOpglVaHPoF0utyKIM-69" value="" style="endArrow=classic;html=1;exitX=1;exitY=0.5;exitDx=0;exitDy=0;entryX=0;entryY=0.5;entryDx=0;entryDy=0;edgeStyle=orthogonalEdgeStyle;" edge="1" parent="1" source="-4MOpglVaHPoF0utyKIM-59" target="-4MOpglVaHPoF0utyKIM-63">
          <mxGeometry width="50" height="50" relative="1" as="geometry">
            <mxPoint x="570" y="990" as="sourcePoint" />
            <mxPoint x="620" y="940" as="targetPoint" />
          </mxGeometry>
        </mxCell>
        <mxCell id="-4MOpglVaHPoF0utyKIM-70" value="" style="endArrow=classic;html=1;exitX=1;exitY=0.5;exitDx=0;exitDy=0;entryX=0;entryY=0.5;entryDx=0;entryDy=0;edgeStyle=orthogonalEdgeStyle;" edge="1" parent="1" source="-4MOpglVaHPoF0utyKIM-59" target="-4MOpglVaHPoF0utyKIM-64">
          <mxGeometry width="50" height="50" relative="1" as="geometry">
            <mxPoint x="590" y="990" as="sourcePoint" />
            <mxPoint x="640" y="940" as="targetPoint" />
          </mxGeometry>
        </mxCell>
        <mxCell id="-4MOpglVaHPoF0utyKIM-71" value="" style="endArrow=classic;html=1;exitX=1;exitY=0.5;exitDx=0;exitDy=0;entryX=0;entryY=0.5;entryDx=0;entryDy=0;edgeStyle=orthogonalEdgeStyle;" edge="1" parent="1" source="-4MOpglVaHPoF0utyKIM-59" target="-4MOpglVaHPoF0utyKIM-65">
          <mxGeometry width="50" height="50" relative="1" as="geometry">
            <mxPoint x="600" y="1030" as="sourcePoint" />
            <mxPoint x="650" y="980" as="targetPoint" />
          </mxGeometry>
        </mxCell>
        <mxCell id="-4MOpglVaHPoF0utyKIM-72" value="软件感知" style="rounded=0;whiteSpace=wrap;html=1;" vertex="1" parent="1">
          <mxGeometry x="500" y="920" width="100" height="30" as="geometry" />
        </mxCell>
        <mxCell id="-4MOpglVaHPoF0utyKIM-73" value="" style="endArrow=classic;html=1;exitX=1;exitY=0.5;exitDx=0;exitDy=0;entryX=0;entryY=0.5;entryDx=0;entryDy=0;edgeStyle=orthogonalEdgeStyle;" edge="1" parent="1" source="-4MOpglVaHPoF0utyKIM-56" target="-4MOpglVaHPoF0utyKIM-72">
          <mxGeometry width="50" height="50" relative="1" as="geometry">
            <mxPoint x="510" y="1050" as="sourcePoint" />
            <mxPoint x="560" y="1000" as="targetPoint" />
          </mxGeometry>
        </mxCell>
        <mxCell id="-4MOpglVaHPoF0utyKIM-74" value="Object Detection" style="rounded=0;whiteSpace=wrap;html=1;" vertex="1" parent="1">
          <mxGeometry x="630" y="880" width="120" height="20" as="geometry" />
        </mxCell>
        <mxCell id="-4MOpglVaHPoF0utyKIM-88" value="" style="edgeStyle=orthogonalEdgeStyle;rounded=0;orthogonalLoop=1;jettySize=auto;html=1;" edge="1" parent="1" source="-4MOpglVaHPoF0utyKIM-75" target="-4MOpglVaHPoF0utyKIM-87">
          <mxGeometry relative="1" as="geometry" />
        </mxCell>
        <mxCell id="-4MOpglVaHPoF0utyKIM-75" value="Scene" style="rounded=0;whiteSpace=wrap;html=1;" vertex="1" parent="1">
          <mxGeometry x="630" y="920" width="120" height="20" as="geometry" />
        </mxCell>
        <mxCell id="-4MOpglVaHPoF0utyKIM-76" value="Flow" style="rounded=0;whiteSpace=wrap;html=1;" vertex="1" parent="1">
          <mxGeometry x="630" y="970" width="120" height="20" as="geometry" />
        </mxCell>
        <mxCell id="-4MOpglVaHPoF0utyKIM-94" value="" style="edgeStyle=orthogonalEdgeStyle;rounded=0;orthogonalLoop=1;jettySize=auto;html=1;" edge="1" parent="1" source="-4MOpglVaHPoF0utyKIM-77" target="-4MOpglVaHPoF0utyKIM-93">
          <mxGeometry relative="1" as="geometry" />
        </mxCell>
        <mxCell id="-4MOpglVaHPoF0utyKIM-77" value="Object Tracking" style="rounded=0;whiteSpace=wrap;html=1;" vertex="1" parent="1">
          <mxGeometry x="630" y="1010" width="120" height="20" as="geometry" />
        </mxCell>
        <mxCell id="-4MOpglVaHPoF0utyKIM-78" value="" style="endArrow=classic;html=1;exitX=1;exitY=0.5;exitDx=0;exitDy=0;entryX=0;entryY=0.5;entryDx=0;entryDy=0;edgeStyle=orthogonalEdgeStyle;" edge="1" parent="1" source="-4MOpglVaHPoF0utyKIM-72" target="-4MOpglVaHPoF0utyKIM-74">
          <mxGeometry width="50" height="50" relative="1" as="geometry">
            <mxPoint x="580" y="1070" as="sourcePoint" />
            <mxPoint x="630" y="1020" as="targetPoint" />
          </mxGeometry>
        </mxCell>
        <mxCell id="-4MOpglVaHPoF0utyKIM-79" value="" style="endArrow=classic;html=1;exitX=1;exitY=0.5;exitDx=0;exitDy=0;entryX=0;entryY=0.5;entryDx=0;entryDy=0;edgeStyle=orthogonalEdgeStyle;" edge="1" parent="1" source="-4MOpglVaHPoF0utyKIM-72" target="-4MOpglVaHPoF0utyKIM-75">
          <mxGeometry width="50" height="50" relative="1" as="geometry">
            <mxPoint x="650" y="1080" as="sourcePoint" />
            <mxPoint x="700" y="1030" as="targetPoint" />
          </mxGeometry>
        </mxCell>
        <mxCell id="-4MOpglVaHPoF0utyKIM-80" value="" style="endArrow=classic;html=1;exitX=1;exitY=0.5;exitDx=0;exitDy=0;entryX=0;entryY=0.5;entryDx=0;entryDy=0;edgeStyle=orthogonalEdgeStyle;" edge="1" parent="1" source="-4MOpglVaHPoF0utyKIM-72" target="-4MOpglVaHPoF0utyKIM-76">
          <mxGeometry width="50" height="50" relative="1" as="geometry">
            <mxPoint x="600" y="1070" as="sourcePoint" />
            <mxPoint x="650" y="1020" as="targetPoint" />
          </mxGeometry>
        </mxCell>
        <mxCell id="-4MOpglVaHPoF0utyKIM-81" value="" style="endArrow=classic;html=1;exitX=1;exitY=0.5;exitDx=0;exitDy=0;entryX=0;entryY=0.5;entryDx=0;entryDy=0;edgeStyle=orthogonalEdgeStyle;" edge="1" parent="1" source="-4MOpglVaHPoF0utyKIM-72" target="-4MOpglVaHPoF0utyKIM-77">
          <mxGeometry width="50" height="50" relative="1" as="geometry">
            <mxPoint x="630" y="1080" as="sourcePoint" />
            <mxPoint x="680" y="1030" as="targetPoint" />
          </mxGeometry>
        </mxCell>
        <mxCell id="-4MOpglVaHPoF0utyKIM-82" value="R-CNN" style="rounded=0;whiteSpace=wrap;html=1;" vertex="1" parent="1">
          <mxGeometry x="790" y="860" width="130" height="20" as="geometry" />
        </mxCell>
        <mxCell id="-4MOpglVaHPoF0utyKIM-84" value="SSD" style="rounded=0;whiteSpace=wrap;html=1;" vertex="1" parent="1">
          <mxGeometry x="790" y="890" width="130" height="20" as="geometry" />
        </mxCell>
        <mxCell id="-4MOpglVaHPoF0utyKIM-85" value="" style="endArrow=classic;html=1;exitX=1;exitY=0.5;exitDx=0;exitDy=0;entryX=0;entryY=0.5;entryDx=0;entryDy=0;edgeStyle=orthogonalEdgeStyle;" edge="1" parent="1" source="-4MOpglVaHPoF0utyKIM-74" target="-4MOpglVaHPoF0utyKIM-82">
          <mxGeometry width="50" height="50" relative="1" as="geometry">
            <mxPoint x="840" y="1010" as="sourcePoint" />
            <mxPoint x="890" y="960" as="targetPoint" />
          </mxGeometry>
        </mxCell>
        <mxCell id="-4MOpglVaHPoF0utyKIM-86" value="" style="endArrow=classic;html=1;exitX=1;exitY=0.5;exitDx=0;exitDy=0;entryX=0;entryY=0.5;entryDx=0;entryDy=0;edgeStyle=orthogonalEdgeStyle;" edge="1" parent="1" source="-4MOpglVaHPoF0utyKIM-74" target="-4MOpglVaHPoF0utyKIM-84">
          <mxGeometry width="50" height="50" relative="1" as="geometry">
            <mxPoint x="820" y="1010" as="sourcePoint" />
            <mxPoint x="870" y="960" as="targetPoint" />
          </mxGeometry>
        </mxCell>
        <mxCell id="-4MOpglVaHPoF0utyKIM-87" value="Semantic Segmentation" style="rounded=0;whiteSpace=wrap;html=1;" vertex="1" parent="1">
          <mxGeometry x="790" y="920" width="130" height="20" as="geometry" />
        </mxCell>
        <mxCell id="-4MOpglVaHPoF0utyKIM-89" value="2D" style="rounded=0;whiteSpace=wrap;html=1;" vertex="1" parent="1">
          <mxGeometry x="790" y="950" width="130" height="20" as="geometry" />
        </mxCell>
        <mxCell id="-4MOpglVaHPoF0utyKIM-90" value="3D" style="rounded=0;whiteSpace=wrap;html=1;" vertex="1" parent="1">
          <mxGeometry x="790" y="980" width="130" height="20" as="geometry" />
        </mxCell>
        <mxCell id="-4MOpglVaHPoF0utyKIM-91" value="" style="endArrow=classic;html=1;exitX=1;exitY=0.5;exitDx=0;exitDy=0;entryX=0;entryY=0.5;entryDx=0;entryDy=0;edgeStyle=orthogonalEdgeStyle;" edge="1" parent="1" source="-4MOpglVaHPoF0utyKIM-76" target="-4MOpglVaHPoF0utyKIM-89">
          <mxGeometry width="50" height="50" relative="1" as="geometry">
            <mxPoint x="980" y="1010" as="sourcePoint" />
            <mxPoint x="1030" y="960" as="targetPoint" />
          </mxGeometry>
        </mxCell>
        <mxCell id="-4MOpglVaHPoF0utyKIM-92" value="" style="endArrow=classic;html=1;exitX=1;exitY=0.5;exitDx=0;exitDy=0;entryX=0;entryY=0.5;entryDx=0;entryDy=0;edgeStyle=orthogonalEdgeStyle;" edge="1" parent="1" source="-4MOpglVaHPoF0utyKIM-76" target="-4MOpglVaHPoF0utyKIM-90">
          <mxGeometry width="50" height="50" relative="1" as="geometry">
            <mxPoint x="400" y="1090" as="sourcePoint" />
            <mxPoint x="450" y="1040" as="targetPoint" />
          </mxGeometry>
        </mxCell>
        <mxCell id="-4MOpglVaHPoF0utyKIM-93" value="MDP" style="rounded=0;whiteSpace=wrap;html=1;" vertex="1" parent="1">
          <mxGeometry x="790" y="1010" width="130" height="20" as="geometry" />
        </mxCell>
      </root>
    </mxGraphModel>
  </diagram>
</mxfile>
